<?xml version="1.0" encoding="utf-8"?>
<!-- Generator: Adobe Illustrator 27.0.1, SVG Export Plug-In . SVG Version: 6.00 Build 0)  -->
<svg version="1.1" id="Layer_1" xmlns="http://www.w3.org/2000/svg" xmlns:xlink="http://www.w3.org/1999/xlink" x="0px" y="0px"
	 viewBox="0 0 700 700" style="enable-background:new 0 0 700 700;" xml:space="preserve">
<path d="M350,190.1c-3.4,0-5.6,2.2-5.6,5.6v297.4L216.2,382.8c-2.2-2.2-5.6-1.7-7.8,0.6c-2.2,2.2-1.7,5.6,0.6,7.8l137.2,117.6
	c1.1,1.1,2.2,1.1,3.9,1.1c1.7,0,2.8-0.6,3.9-1.1l137.2-117.6c2.2-2.2,2.8-5.6,0.6-7.8c-2.2-2.2-5.6-2.8-7.8-0.6L355.6,492.5V195.7
	C355.6,192.4,353.4,190.1,350,190.1L350,190.1z"/>
</svg>
