<?xml version="1.0" encoding="utf-8"?>
<!-- Generator: Adobe Illustrator 26.5.0, SVG Export Plug-In . SVG Version: 6.00 Build 0)  -->
<svg version="1.1" id="Layer_2_00000068655940976977687210000017889811944576288139_"
	 xmlns="http://www.w3.org/2000/svg" xmlns:xlink="http://www.w3.org/1999/xlink" x="0px" y="0px" viewBox="0 0 73.5 24"
	 style="enable-background:new 0 0 73.5 24;" xml:space="preserve">
<style type="text/css">
	.st0{fill:#FFFFFF;}
</style>
<g id="Layer_1-2">
	<path class="st0" d="M14.2,0.4c1.8,0.1,3.7,0.1,5.5,0.2c1.6,0.1,3.3,0.3,4.9,0.5c0.6,0.1,1.2,0.2,1.8,0.4c0.9,0.4,1.4,1,1.6,2
		C28,4.2,28,4.9,28,5.6c-0.1,1.3-0.3,2.5-0.6,3.8c-0.3,1.2-0.5,2.3-0.8,3.5c-0.5,2-1.1,3.9-1.8,5.8c-0.4,1-0.8,1.9-1.2,2.9
		c-0.2,0.5-0.5,1-1,1.3c-0.3,0.2-0.7,0.4-1,0.4c-0.4,0.1-0.9,0.1-1.3,0c-0.6-0.1-1.1-0.4-1.4-0.9c-0.4-0.5-0.7-1-1.1-1.5
		c-0.7-1-1.4-2.1-2.1-3.2c-0.2-0.2-0.4-0.5-0.6-0.7c-0.5-0.4-1.3-0.4-1.8,0.1c-0.4,0.3-0.6,0.7-0.8,1.1c-0.7,1.2-1.5,2.3-2.2,3.5
		c-0.2,0.3-0.4,0.5-0.6,0.8c-0.4,0.5-0.9,0.7-1.6,0.8c-0.7,0.1-1.4,0-2-0.3c-0.5-0.3-0.9-0.8-1.1-1.3c-0.3-0.7-0.7-1.4-1-2.2
		c-0.5-1.2-0.9-2.4-1.3-3.6c-0.4-1.2-0.7-2.4-1-3.5c-0.2-0.8-0.4-1.6-0.6-2.4C0.7,8.1,0.3,6.2,0.4,4.3c0-0.6,0.1-1.1,0.4-1.6
		c0.4-0.7,1-1.1,1.8-1.3C3.3,1.2,4.1,1.1,4.9,1c0.9-0.1,1.8-0.2,2.7-0.3c1.7-0.1,3.4-0.2,5.2-0.2C13.3,0.4,13.7,0.5,14.2,0.4
		C14.2,0.4,14.2,0.4,14.2,0.4L14.2,0.4z"/>
	<path class="st0" d="M42.2,23.6c-1.1,0-2.2-0.1-3.3-0.4c-3.4-0.8-5.9-2.7-7.4-5.9c-0.8-1.6-1.1-3.3-1.1-5.1c0-1.4,0.1-2.7,0.5-4
		c0.7-2.5,2.2-4.4,4.4-5.8c1.1-0.7,2.3-1.2,3.6-1.5c1.4-0.3,2.9-0.4,4.3-0.3c0.9,0.1,1.9,0.2,2.8,0.5c1.6,0.5,3,1.2,4.2,2.5
		c1,1.1,1.5,2.4,1.5,3.8c0,2.7-1.2,4.6-3.6,5.9c-1.2,0.6-2.5,0.8-3.8,0.7c-0.8,0-1.7-0.1-2.5-0.4c-0.5-0.2-1.1-0.4-1.5-0.7
		c-0.1-0.1-0.2-0.2-0.4-0.2c-0.2-0.1-0.3,0-0.3,0.2c0,0.2,0,0.4,0,0.6c0.1,1.3,0.7,2.4,1.7,3.3c0.5,0.5,1.2,0.7,1.8,0.9
		c1.9,0.5,3.7,0.2,5.5-0.7c0.5-0.2,0.9-0.4,1.4-0.3c0.8,0.1,1.5,0.9,1.4,1.8c0,0.5-0.3,1-0.5,1.4c-0.7,1.2-1.8,2-3,2.5
		c-1.5,0.7-3.1,1-4.8,1.1c-0.1,0-0.2,0-0.3,0C42.5,23.6,42.3,23.6,42.2,23.6L42.2,23.6z"/>
	<path class="st0" d="M55.8,6.6c-0.5,0-0.9-0.4-0.9-0.9V2.3c0-0.3,0.3-0.6,0.6-0.6h6.7c0.5,0,0.9,0.4,0.9,0.9s-0.4,0.9-0.9,0.9h-4.3
		c-0.6,0-1.1,0.5-1.1,1.1v1C56.8,6.2,56.4,6.6,55.8,6.6L55.8,6.6z"/>
	<path class="st0" d="M67.1,8.7c-0.2,0-0.5-0.1-0.7-0.3c-0.4-0.4-0.4-0.9,0-1.3L69.6,4c0.2-0.2,0-0.4-0.2-0.4h-3.2
		c-0.5,0-0.9-0.4-0.9-0.9s0.4-0.9,0.9-0.9h6.1c0.4,0,0.7,0.2,0.8,0.6c0.1,0.3,0.1,0.8-0.2,1l-5.1,5.1C67.6,8.6,67.3,8.7,67.1,8.7
		L67.1,8.7z"/>
	<path class="st0" d="M58.4,16c-1.2,0-2.4-0.5-3.2-1.3c-0.4-0.4-0.4-0.9,0-1.3c0.4-0.4,1-0.4,1.3,0c0.5,0.5,1.2,0.8,1.9,0.8
		c1.5,0,2.7-1.2,2.7-2.7s-1.2-2.7-2.7-2.7c-0.7,0-1.4,0.3-1.9,0.8c-0.4,0.4-1,0.4-1.3,0c-0.4-0.4-0.3-0.9,0-1.3
		c0.9-0.8,2-1.3,3.2-1.3c2.5,0,4.6,2.1,4.6,4.6S60.9,16,58.4,16L58.4,16z"/>
	<path class="st0" d="M68.8,16c-0.8,0-1.5-0.2-2.2-0.6c-0.3-0.2-0.6-0.4-0.9-0.7c-0.4-0.3-0.4-0.9-0.1-1.3c0.3-0.4,0.9-0.4,1.3-0.1
		c0.2,0.2,0.4,0.3,0.6,0.4c0.7,0.4,1.4,0.4,2.2,0.2s1.3-0.7,1.7-1.4s0.4-1.4,0.2-2.2c-0.2-0.7-0.7-1.3-1.4-1.7
		c-0.4-0.2-0.6-0.8-0.4-1.2C70,7.1,70.6,7,71,7.2c1.1,0.6,1.9,1.6,2.3,2.8c0.4,1.2,0.2,2.5-0.4,3.6s-1.6,1.9-2.8,2.3
		C69.7,16,69.2,16.1,68.8,16L68.8,16z"/>
</g>
</svg>
