<?xml version="1.0" encoding="UTF-8"?>
<svg id="Layer_2" data-name="Layer 2" xmlns="http://www.w3.org/2000/svg" viewBox="0 0 73.62 24.22">
  <defs>
    <style>
      .cls-1 {
        fill: none;
        stroke: #000;
        stroke-miterlimit: 10;
      }
    </style>
  </defs>
  <g id="Layer_1-2" data-name="Layer 1">
    <path class="cls-1" d="M14.32,.52c1.83,.08,3.65,.13,5.48,.23,1.64,.09,3.28,.27,4.9,.53,.6,.1,1.19,.18,1.75,.43,.87,.37,1.38,1.03,1.56,1.95,.14,.68,.13,1.37,.08,2.05-.08,1.27-.28,2.52-.56,3.76-.26,1.16-.51,2.33-.81,3.48-.5,1.97-1.09,3.91-1.83,5.8-.38,.97-.79,1.92-1.21,2.87-.23,.51-.55,.97-1.02,1.3-.32,.23-.67,.35-1.05,.41-.44,.06-.87,.07-1.31-.02-.58-.11-1.08-.4-1.44-.86-.39-.49-.74-1.01-1.08-1.53-.69-1.05-1.36-2.12-2.05-3.17-.17-.25-.38-.49-.61-.68-.52-.4-1.26-.35-1.75,.09-.36,.32-.59,.72-.84,1.12-.74,1.16-1.48,2.32-2.23,3.47-.19,.29-.41,.55-.64,.81-.41,.46-.93,.73-1.55,.79-.69,.08-1.37,.05-2-.31-.51-.29-.86-.75-1.1-1.27-.34-.71-.67-1.43-.95-2.17-.46-1.2-.91-2.4-1.3-3.62-.37-1.17-.68-2.36-.99-3.54-.21-.79-.4-1.6-.57-2.4-.4-1.85-.76-3.7-.69-5.61,.02-.56,.12-1.11,.4-1.61,.39-.71,1.02-1.1,1.77-1.27,.78-.18,1.58-.31,2.38-.42,.91-.12,1.82-.23,2.73-.29,1.72-.11,3.44-.17,5.16-.25,.45-.02,.91,0,1.36,0,0-.02,0-.04,0-.06Z"/>
    <path class="cls-1" d="M42.31,23.72c-1.11,.01-2.22-.09-3.3-.35-3.39-.82-5.92-2.74-7.42-5.93-.75-1.6-1.08-3.3-1.12-5.07-.03-1.36,.11-2.7,.51-4.01,.74-2.47,2.19-4.43,4.38-5.82,1.1-.69,2.29-1.17,3.56-1.46,1.43-.33,2.88-.41,4.34-.3,.94,.07,1.86,.22,2.76,.49,1.61,.48,3.05,1.24,4.18,2.52,.96,1.09,1.5,2.36,1.52,3.82,.05,2.73-1.23,4.65-3.64,5.85-1.19,.59-2.47,.78-3.79,.74-.84-.03-1.67-.12-2.48-.36-.55-.17-1.06-.4-1.52-.74-.12-.09-.25-.17-.38-.24-.18-.09-.3-.01-.31,.19,0,.2,0,.41,.02,.61,.14,1.33,.7,2.44,1.72,3.3,.53,.45,1.16,.71,1.83,.87,1.91,.46,3.74,.16,5.49-.69,.45-.22,.92-.35,1.43-.28,.83,.12,1.48,.92,1.42,1.76-.04,.52-.26,.98-.54,1.42-.74,1.17-1.79,1.97-3.03,2.55-1.51,.7-3.11,1.01-4.76,1.1-.11,0-.22,.01-.33,.02-.19,0-.37,0-.56,0Z"/>
    <path d="M55.96,6.75c-.51,0-.92-.41-.92-.92V2.44c0-.32,.26-.59,.59-.59h6.66c.51,0,.92,.41,.92,.92s-.41,.92-.92,.92h-4.27c-.62,0-1.12,.5-1.12,1.12v1.01c0,.51-.41,.92-.92,.92Z"/>
    <path d="M67.24,8.79c-.24,0-.48-.09-.66-.27-.36-.36-.36-.95,0-1.31l3.13-3.11c.15-.15,.04-.4-.17-.4h-3.25c-.51,0-.92-.41-.92-.92s.41-.92,.92-.92h6.07c.38,0,.71,.23,.85,.57,.14,.35,.06,.75-.2,1.01l-5.14,5.09c-.18,.18-.42,.27-.65,.27Z"/>
    <path d="M58.53,16.1c-1.22,0-2.36-.47-3.23-1.33-.36-.36-.36-.95,0-1.31,.36-.36,.95-.36,1.31,0,.51,.51,1.2,.79,1.92,.79,1.51,0,2.73-1.23,2.73-2.73s-1.22-2.73-2.73-2.73c-.71,0-1.39,.27-1.9,.77-.37,.36-.95,.35-1.31-.02-.36-.37-.35-.95,.02-1.31,.86-.84,2-1.3,3.19-1.3,2.53,0,4.58,2.05,4.58,4.58s-2.06,4.58-4.58,4.58Z"/>
    <path d="M68.9,16.18c-.77,0-1.54-.19-2.24-.57-.33-.18-.64-.4-.93-.66-.38-.34-.4-.93-.06-1.31,.34-.38,.93-.4,1.31-.06,.17,.16,.36,.29,.56,.4,.68,.37,1.45,.45,2.18,.23,.73-.22,1.34-.71,1.7-1.38,.36-.67,.45-1.44,.23-2.18-.22-.73-.71-1.34-1.38-1.7-.45-.24-.61-.81-.37-1.25,.25-.45,.81-.61,1.26-.37,1.11,.6,1.91,1.6,2.27,2.8,.36,1.21,.22,2.48-.38,3.59s-1.6,1.91-2.8,2.27c-.44,.13-.89,.2-1.34,.2Z"/>
  </g>
</svg>